HIERARCHY
ROOT mixamorig:Hips
{
  OFFSET 0.000000 0.000000 0.000000
  CHANNELS 6 Xposition Yposition Zposition Xrotation Yrotation Zrotation
  JOINT mixamorig:Spine
  {
    OFFSET 1.029272 24.139234 -3.309675
    CHANNELS 3 Xrotation Yrotation Zrotation
    JOINT mixamorig:Spine2
    {
      OFFSET 1.029272 24.139234 -3.309675
      CHANNELS 3 Xrotation Yrotation Zrotation
      JOINT mixamorig:Neck
      {
        OFFSET 0.000000 6.442996 0.000000
        CHANNELS 3 Xrotation Yrotation Zrotation
        JOINT mixamorig:Head
        {
          OFFSET 0.000000 7.107403 0.000000
          CHANNELS 3 Xrotation Yrotation Zrotation
          End Site
          {
            OFFSET 0.000000 2.132221 0.000000
          }
        }
      }
      JOINT mixamorig:LeftShoulder
      {
        OFFSET 15.824782 3.385161 -4.490161
        CHANNELS 3 Xrotation Yrotation Zrotation
        JOINT mixamorig:LeftArm
        {
          OFFSET 6.638871 -21.899489 2.577768
          CHANNELS 3 Xrotation Yrotation Zrotation
          JOINT mixamorig:LeftForeArm
          {
            OFFSET 1.662469 -23.769893 2.728891
            CHANNELS 3 Xrotation Yrotation Zrotation
            JOINT mixamorig:LeftHand
            {
              OFFSET -1.157011 -3.989585 -0.720753
              CHANNELS 3 Xrotation Yrotation Zrotation
              End Site
              {
                OFFSET -0.347103 -1.196876 -0.216226
              }
            }
          }
        }
      }
      JOINT mixamorig:RightShoulder
      {
        OFFSET -15.824782 3.385161 4.490161
        CHANNELS 3 Xrotation Yrotation Zrotation
        JOINT mixamorig:RightArm
        {
          OFFSET -4.830150 -29.706995 -0.659229
          CHANNELS 3 Xrotation Yrotation Zrotation
          JOINT mixamorig:RightForeArm
          {
            OFFSET -6.735460 -18.902062 -7.831287
            CHANNELS 3 Xrotation Yrotation Zrotation
            JOINT mixamorig:RightHand
            {
              OFFSET 1.562441 -2.563879 -3.933201
              CHANNELS 3 Xrotation Yrotation Zrotation
              End Site
              {
                OFFSET 0.468732 -0.769164 -1.179960
              }
            }
          }
        }
      }
    }
  }
  JOINT mixamorig:LeftUpLeg
  {
    OFFSET 8.875314 -0.675327 -0.291526
    CHANNELS 3 Xrotation Yrotation Zrotation
    JOINT mixamorig:LeftLeg
    {
      OFFSET -2.390302 -38.516964 -5.036820
      CHANNELS 3 Xrotation Yrotation Zrotation
      JOINT mixamorig:LeftFoot
      {
        OFFSET -8.828852 -38.184494 2.671044
        CHANNELS 3 Xrotation Yrotation Zrotation
        JOINT mixamorig:LeftToeBase
        {
          OFFSET 0.295877 -2.442271 -8.215583
          CHANNELS 3 Xrotation Yrotation Zrotation
          End Site
          {
            OFFSET 0.088763 -0.732681 -2.464675
          }
        }
      }
    }
  }
  JOINT mixamorig:RightUpLeg
  {
    OFFSET -8.875314 0.675327 0.291526
    CHANNELS 3 Xrotation Yrotation Zrotation
    JOINT mixamorig:RightLeg
    {
      OFFSET 8.015065 -34.486904 0.724164
      CHANNELS 3 Xrotation Yrotation Zrotation
      JOINT mixamorig:RightFoot
      {
        OFFSET 6.404977 -40.836734 14.623500
        CHANNELS 3 Xrotation Yrotation Zrotation
        JOINT mixamorig:RightToeBase
        {
          OFFSET -6.047014 -0.576580 -6.907032
          CHANNELS 3 Xrotation Yrotation Zrotation
          End Site
          {
            OFFSET -1.814104 -0.172974 -2.072110
          }
        }
      }
    }
  }
}
MOTION
Frames: 15
Frame Time: 0.083333
0.118654 0.118983 0.081677 1.667454 -0.431108 -2.946555 0.000000 0.000000 0.000000 -7.479058 8.100940 3.761586 -20.254669 -5.537861 -9.602156 -18.779949 -9.067476 -8.144850 1.900411 -9.421802 -2.647530 10.953366 2.356239 3.613842 1.384661 -2.140472 -6.203899 0.000000 0.000000 0.000000 6.726174 -8.298723 0.022567 -0.974590 -2.631403 6.506338 -0.931292 -0.590818 -4.111492 0.000000 0.000000 0.000000 -3.473462 -0.292405 8.679517 -13.317784 7.568348 3.446707 -3.308329 -9.610412 -7.820234 0.000000 0.000000 0.000000 -1.432915 0.125769 -11.870801 4.077655 -3.601363 -0.901706 -4.675513 -18.478285 24.839968 0.000000 0.000000 0.000000
0.119183 0.120310 0.082862 1.971322 -0.423035 -2.839297 0.000000 0.000000 0.000000 -7.471270 8.238783 3.623605 -20.403561 -5.479041 -9.607171 -18.940341 -9.036531 -8.166840 2.175710 -9.505005 -3.482921 10.510228 2.433260 3.732024 1.553305 -1.887367 -6.535019 0.000000 0.000000 0.000000 6.120034 -8.362204 -0.554320 -0.794497 -2.998484 7.861985 -0.995769 -1.332448 -4.258154 0.000000 0.000000 0.000000 -4.434510 -0.279060 8.671199 -13.350893 7.802303 3.471411 -1.588571 -10.229095 -7.773075 0.000000 0.000000 0.000000 -1.821463 0.075019 -11.666796 4.404358 -3.462533 -1.360581 -4.592988 -17.947778 24.414853 0.000000 0.000000 0.000000
0.119329 0.121286 0.084059 1.753988 -0.394514 -2.641149 0.000000 0.000000 0.000000 -7.466565 8.312191 3.464250 -20.274021 -5.348926 -9.607466 -18.849028 -8.878225 -8.221498 2.311445 -9.846372 -5.046473 10.376945 2.852463 3.126584 1.054055 -0.915321 -6.902917 0.000000 0.000000 0.000000 6.063253 -8.392368 -0.795726 -0.925581 -3.205268 8.850210 -1.028272 -2.441085 -4.292783 0.000000 0.000000 0.000000 -4.637427 -0.273672 8.671163 -13.696967 8.155695 3.368038 -0.762184 -11.118006 -7.573988 0.000000 0.000000 0.000000 -2.087896 -0.133356 -11.645870 4.730196 -3.170021 -1.405110 -4.801603 -17.798507 24.336644 0.000000 0.000000 0.000000
0.119251 0.122163 0.085661 1.206480 -0.328247 -2.204991 -0.000000 0.000000 0.000000 -7.454155 8.527530 3.129226 -19.973431 -5.201300 -9.649090 -18.588914 -8.683388 -8.331474 2.885501 -10.174002 -5.658425 9.889880 2.846602 1.177233 1.276549 0.325201 -8.144126 0.000000 0.000000 0.000000 6.533235 -8.608838 -0.894858 -1.133851 -3.572259 10.068816 -0.968426 -3.337993 -4.620251 0.000000 0.000000 0.000000 -4.971187 -0.251528 8.610444 -14.167828 8.792266 3.254441 -0.910125 -11.824066 -7.762564 0.000000 0.000000 0.000000 -2.939300 -0.720886 -11.790461 5.572107 -2.505737 -1.520417 -4.980307 -17.485649 24.416521 0.000000 0.000000 0.000000
0.119145 0.123174 0.087439 0.583647 -0.233955 -1.591081 -0.000000 0.000000 0.000000 -7.445230 8.635926 2.619970 -19.625933 -5.167990 -9.595138 -18.265697 -8.567423 -8.299055 3.707336 -10.262969 -5.620053 9.324390 2.624449 -0.225491 1.395697 0.966441 -8.437319 0.000000 0.000000 0.000000 7.468014 -8.794896 -0.447736 -1.503834 -3.957512 10.784617 -0.846556 -3.695744 -5.173881 0.000000 0.000000 0.000000 -5.367901 -0.231630 8.535004 -14.210203 9.362890 3.035884 -1.803674 -12.127959 -8.201698 0.000000 0.000000 0.000000 -4.212795 -1.483637 -11.728062 6.244324 -2.092203 -2.315479 -4.304951 -16.762120 24.630528 0.000000 0.000000 0.000000
0.119080 0.124265 0.089146 0.223746 -0.151899 -1.059970 -0.000000 0.000000 0.000000 -7.449454 8.468964 2.125698 -19.383379 -5.034433 -9.475410 -18.080383 -8.348046 -8.231834 4.373127 -10.021786 -5.432354 8.873405 2.437657 -0.335178 1.296375 0.957868 -8.077727 0.000000 0.000000 0.000000 8.377668 -8.744570 0.344799 -1.768656 -4.286026 10.811277 -1.016450 -3.695388 -5.542222 0.000000 0.000000 0.000000 -5.666606 -0.252328 8.723428 -13.982876 9.829149 2.747995 -3.149224 -12.390169 -8.705381 0.000000 0.000000 0.000000 -5.028986 -1.914974 -11.507196 6.369030 -2.128976 -3.229462 -4.131531 -15.270280 24.972710 0.000000 0.000000 0.000000
0.118813 0.126027 0.090506 -0.190470 -0.064990 -0.531596 0.000000 0.000000 0.000000 -7.455677 8.281434 1.637514 -19.121247 -4.962994 -9.409064 -17.851451 -8.206279 -8.197296 4.928406 -9.802532 -5.140232 8.528600 2.300019 -0.138428 1.307556 0.794892 -7.638183 0.000000 0.000000 0.000000 9.145197 -8.649042 1.018055 -2.076613 -4.510376 10.873704 -1.116750 -3.746829 -5.977447 0.000000 0.000000 0.000000 -5.495731 -0.301579 8.762536 -13.702169 10.134521 2.693183 -3.482649 -12.397577 -9.314283 0.000000 0.000000 0.000000 -5.268715 -2.150356 -11.557342 6.422168 -2.128505 -3.673349 -4.094899 -13.749922 24.732528 0.000000 0.000000 0.000000
0.118048 0.128762 0.091601 -0.592780 0.024787 -0.012550 0.000000 0.000000 0.000000 -7.462797 8.101926 1.154205 -18.866605 -4.877989 -9.410175 -17.623507 -8.073068 -8.236582 5.268742 -9.643623 -4.755001 8.389400 2.219446 -0.030959 1.342630 0.675296 -7.468804 0.000000 0.000000 0.000000 9.622591 -8.517347 1.517620 -2.280090 -4.710753 11.095055 -1.011392 -3.920247 -6.441708 0.000000 0.000000 0.000000 -5.173527 -0.367953 8.692348 -13.817109 10.481546 2.536641 -3.270105 -11.370287 -10.184001 0.000000 0.000000 0.000000 -4.945093 -2.190805 -11.778504 6.261412 -2.272102 -3.969162 -4.073098 -12.952884 24.594740 0.000000 0.000000 0.000000
0.117071 0.132106 0.092285 -1.214215 0.122496 0.473162 0.000000 0.000000 0.000000 -7.473635 7.864998 0.726128 -18.496960 -4.724682 -9.524296 -17.284678 -7.883054 -8.420352 5.720262 -9.461352 -4.278708 8.309103 2.141251 -0.096447 1.539538 0.646878 -7.612873 0.000000 0.000000 0.000000 10.280022 -8.342053 2.123808 -2.550795 -4.797737 11.062274 -0.602356 -4.167123 -6.805700 0.000000 0.000000 0.000000 -4.759819 -0.423587 8.552338 -13.530540 10.638705 2.553664 -2.007699 -10.757581 -10.866997 0.000000 0.000000 0.000000 -4.391727 -2.240443 -11.938542 6.564488 -2.253182 -4.543775 -4.218124 -13.092545 24.813245 0.000000 0.000000 0.000000
0.116367 0.135075 0.092655 -1.587155 0.191564 0.817003 0.000000 0.000000 0.000000 -7.478520 7.780643 0.423726 -18.280048 -4.679638 -9.671498 -17.063960 -7.840702 -8.594925 6.033677 -9.367894 -3.772855 8.277480 2.022590 -0.386834 1.532695 0.666496 -7.796432 0.000000 0.000000 0.000000 10.627513 -8.293009 2.565115 -2.504980 -5.022953 11.135927 -0.405184 -4.324776 -7.034296 0.000000 0.000000 0.000000 -4.577104 -0.457754 8.440065 -13.393007 10.783689 2.569344 -1.196447 -10.091465 -11.463322 0.000000 0.000000 0.000000 -4.202698 -2.331345 -12.137330 6.963581 -2.089970 -4.806637 -4.377937 -13.420197 24.949199 0.000000 0.000000 0.000000
0.116026 0.137380 0.092777 -1.702228 0.219878 0.965829 0.000000 0.000000 0.000000 -7.474993 7.881078 0.306969 -18.228649 -4.785863 -9.872462 -16.960312 -7.998716 -8.767819 6.281677 -9.418354 -3.602842 8.055745 1.923096 -0.380478 1.443400 0.674929 -7.852834 0.000000 0.000000 0.000000 10.766550 -8.413768 2.736988 -2.564352 -5.225682 11.488075 -0.514760 -4.355910 -7.387774 0.000000 0.000000 0.000000 -4.594033 -0.464668 8.413304 -13.058519 10.716587 2.540883 -0.625024 -10.136205 -11.492271 0.000000 0.000000 0.000000 -4.192697 -2.374332 -12.185480 7.242814 -1.966508 -4.961651 -4.547241 -13.774079 25.097006 0.000000 0.000000 0.000000
0.115763 0.139087 0.092815 -1.573409 0.217720 0.995212 0.000000 0.000000 -0.000000 -7.470885 7.978561 0.273891 -18.305896 -4.891349 -10.044987 -16.985135 -8.171504 -8.907327 6.259613 -9.491021 -3.712592 7.995887 1.915927 -0.376436 1.206585 0.733146 -7.871173 0.000000 0.000000 0.000000 10.665622 -8.510512 2.803879 -2.540989 -5.488241 11.948427 -0.603062 -4.217631 -7.798257 0.000000 0.000000 0.000000 -4.705863 -0.461676 8.396388 -12.989165 10.682036 2.536232 -0.750679 -10.028287 -11.545629 0.000000 0.000000 0.000000 -4.247202 -2.339854 -12.166385 7.256243 -1.950483 -4.958403 -4.699983 -14.218326 25.278343 0.000000 0.000000 0.000000
0.115531 0.140470 0.092709 -1.312181 0.201735 0.978541 0.000000 0.000000 -0.000000 -7.462935 8.157409 0.279476 -18.459957 -5.035775 -10.223712 -17.072949 -8.400886 -9.036902 6.197353 -9.608637 -3.859290 7.873274 1.877664 -0.481343 0.939884 0.844398 -7.932962 0.000000 0.000000 0.000000 10.491905 -8.691542 2.893918 -2.451920 -5.809946 12.386264 -0.725643 -3.840487 -8.277929 0.000000 0.000000 0.000000 -5.034265 -0.432123 8.420517 -12.814799 10.617697 2.562298 -0.986277 -9.930637 -11.633283 0.000000 0.000000 0.000000 -4.432476 -2.290569 -12.070435 7.354207 -1.888151 -4.973748 -4.881808 -14.873388 25.465571 0.000000 0.000000 0.000000
0.115304 0.141648 0.092462 -1.039482 0.184893 0.959512 0.000000 0.000000 -0.000000 -7.458400 8.256764 0.272686 -18.614318 -5.161771 -10.336919 -17.173717 -8.592809 -9.104524 6.138571 -9.649903 -4.060678 7.794599 1.859304 -0.553841 0.776650 0.909192 -7.893577 0.000000 0.000000 0.000000 10.356759 -8.801296 3.028827 -2.468166 -6.050294 12.703912 -0.880311 -3.602086 -8.636436 0.000000 0.000000 0.000000 -5.367549 -0.402086 8.435147 -12.602281 10.533649 2.625056 -1.111341 -10.008062 -11.648991 0.000000 0.000000 0.000000 -4.679578 -2.257166 -11.977659 7.685024 -1.702619 -5.011730 -5.151468 -15.874053 25.699902 0.000000 0.000000 0.000000
0.115062 0.142570 0.092271 -0.959149 0.175428 0.922822 0.000000 0.000000 0.000000 -7.453595 8.362955 0.312397 -18.675602 -5.284765 -10.416711 -17.188190 -8.753875 -9.141081 6.145598 -9.739629 -4.199274 7.830057 1.868285 -0.660388 0.762678 0.945093 -7.870890 0.000000 0.000000 0.000000 10.280123 -8.908709 3.144497 -2.434807 -6.250512 12.965377 -0.993654 -3.498430 -8.910425 0.000000 0.000000 0.000000 -5.503201 -0.385093 8.462768 -12.477213 10.496700 2.702198 -1.178600 -10.001471 -11.726170 0.000000 0.000000 0.000000 -4.748520 -2.237607 -11.827426 7.870671 -1.609181 -5.091778 -5.359078 -16.527379 25.911750 0.000000 0.000000 0.000000
